<?xml version="1.0" encoding="UTF-8"?><svg id="a" xmlns="http://www.w3.org/2000/svg" viewBox="0 0 999 999"><defs><style>.b{fill:#fff;}</style></defs><g><path class="b" d="M499.49,12.5c65.75,0,129.53,12.88,189.56,38.27,57.99,24.53,110.08,59.65,154.81,104.38,44.73,44.73,79.85,96.81,104.37,154.8,25.39,60.03,38.27,123.81,38.27,189.55s-12.87,129.53-38.27,189.56c-24.53,57.99-59.64,110.07-104.37,154.8-44.73,44.73-96.81,79.85-154.81,104.37-60.03,25.39-123.81,38.27-189.56,38.27s-129.52-12.88-189.55-38.27c-57.99-24.53-110.07-59.64-154.8-104.37-44.73-44.73-79.85-96.81-104.37-154.8-25.39-60.03-38.27-123.81-38.27-189.56s12.88-129.52,38.27-189.55c24.53-57.99,59.64-110.07,104.37-154.8,44.73-44.73,96.81-79.85,154.8-104.38,60.03-25.39,123.8-38.27,189.55-38.27m0-12.5C223.64,0,0,223.64,0,499.5s223.64,499.5,499.49,499.5,499.51-223.63,499.51-499.5S775.36,0,499.49,0h0Z"/><g><path class="b" d="M499.49,191.54c-170.08,0-307.96,137.89-307.96,307.96s137.88,307.96,307.96,307.96,307.96-137.88,307.96-307.96S669.58,191.54,499.49,191.54Zm193.83,501.79c-51.77,51.77-120.61,80.29-193.82,80.29s-142.06-28.51-193.83-80.29c-51.77-51.77-80.29-120.61-80.29-193.83s28.51-142.05,80.29-193.83c51.78-51.78,120.62-80.3,193.83-80.3s142.05,28.52,193.82,80.3c51.77,51.78,80.28,120.61,80.28,193.83s-28.51,142.06-80.28,193.83Z"/><path class="b" d="M684.84,314.16c-49.51-49.51-115.33-76.78-185.34-76.78s-135.84,27.27-185.35,76.78c-49.51,49.51-76.77,115.34-76.77,185.34s27.27,135.84,76.77,185.34c49.51,49.51,115.33,76.77,185.35,76.77s135.83-27.26,185.34-76.77c49.5-49.51,76.77-115.33,76.77-185.34s-27.26-135.83-76.77-185.34Zm-82.42,339.48c-9.11-16.15-10.89-18.97-18.2-20.68-10.76-2.57-17.99,3.19-17.99,3.19l.1-.13c-17.78,13.48-38.32,21.14-70.67,21.14-46.42,0-80.26-18.17-106-43.91-22.71-22.71-43.41-59.07-43.41-103.48,0-41.92,15.64-83.79,46.43-115.11,28.31-27.77,64.14-51.5,112.08-51.5s72.71,19.68,79.27,19.68c4.04,0,9.06-4.54,18.17-20.67,1.03-2.55,13.62-1.54,13.62,1.51-2.5,34.3-2.5,87.81-1.99,114.07,0,2.02-12.64,2.02-13.16,0-10.06-34.32-22.21-62.07-36.83-76.72-12.62-12.63-29.3-19.7-59.58-19.7-41.4,0-65.64,21.71-76.73,44.41-15.14,30.29-20.72,58.56-20.72,102.49,0,38.38,5.08,65.15,16.16,86.85,12.14,25.26,39.39,41.89,79.8,41.89,31.77,0,49.83-10.13,68.03-28.25,14.12-14.09,22.63-28.72,28.76-48.1,.75-2.4,15.33,2.6,14.81,4.59-.51,26.28-.85,52.61,1.67,86.89,0,3.06-12.63,4.08-13.61,1.53Z"/></g><g><path class="b" d="M260.42,226.28c-.28-.62-2.45-2.75-3.36-2.75l-.42,.02-.25,.26c-5,5.26-5.92,5.76-7.26,5.83-1.77,.1-3.8-.45-8.72-2.45-33.91-13.48-48.91-19.57-59.38-24.11-.24-.12-.47-.19-.71-.19-.72,0-1.38,.49-2.83,2.11-.98,1.11-2.18,2.62-2.3,3.52l-.04,.26,.12,.24c9.54,18.45,17.22,35.32,27.25,58.22,2.21,5.27,3.01,7.83,3.05,9.85,.19,2.14-.62,3.72-4.34,8.4l-.35,.48,.22,.49c.19,.41,2.44,2.73,3.31,2.73h.42l.25-.31c4.46-5.32,12.82-14.92,17.48-19.6,.1-.1,.39-.49,.14-1.05-.25-.57-2.33-2.83-3.29-2.83l-.4,.02-.25,.24c-2.91,2.88-5.06,4.92-6.1,4.92-.3,0-.62-.17-1.1-.59-.9-.8-1.95-2.56-3.03-4.38-1.64-3.08-2.58-5.04-3.91-8.11-.15-.29-.1-.34-.01-.44,1.98-2.4,4.1-4.78,7.1-8.14,5.97-6.69,10.84-11.83,12.69-13.73,4.99,1.94,8.3,3.42,10.74,4.51l.56,.25c2.8,1.16,2.83,1.71,2.84,1.95,.03,.54-.27,1.39-4.2,6.31-.25,.28-.29,.67-.13,1.04,.29,.63,2.4,2.68,3.4,2.68,.29,0,.54-.11,.74-.34,3.24-3.9,5.26-6.14,8.05-9.24,1.06-1.18,2.24-2.49,3.64-4.05,2.17-2.44,3.72-4.06,5.52-5.94,1.33-1.39,2.79-2.91,4.73-5.02,.25-.28,.29-.67,.13-1.04Zm-41.54,6.51c-4.69,5.23-12.31,13.45-17.16,18.45-1.36-2.93-2.68-5.78-4.01-8.68-3.16-6.87-6.42-13.96-10.79-22.96,10.45,4.25,24.22,9.96,31.96,13.19Z"/><path class="b" d="M359.8,151.33l-.03-.19c-.08-.31-.26-1.03-2.84-1.03-.65,0-2.64,0-2.69,1.32-.04,5.91-.42,9.1-2.41,10.18-.62,.34-1.11,.49-1.6,.49-1.87,0-4.54-2.29-10.58-9.08-4.64-5.17-9.34-7.38-15.73-7.38-1.92,0-4.04,.19-6.54,.6,8.54-7.2,14.14-18.55,9.06-27.83-1.81-3.3-4.64-5.65-7.97-6.62-7.22-2.11-16.46-.23-26.96,5.51-2.96,1.62-6.56,3.63-9.83,5.46-2.51,1.4-4.82,2.69-6.49,3.61l-.32,.17c-3.97,2.17-7.72,4.22-15.71,8.46-.33,.18-.85,.66-.55,1.86,.17,.67,1.28,3.29,2.55,3.29l.28-.02,1.01-.54c5.87-3.11,8.07-4.28,8.54-4.28h0c.29,.09,.98,.81,2.59,3.75,.27,.49,.97,1.76,1.98,3.56,2.22,3.98,5.93,10.64,9.55,17.26,.92,1.68,2.16,4,4.06,7.55,2.22,4.16,5.36,10.02,9.95,18.56,1.42,2.59,1.62,3.41,1.64,3.65-.82,.86-6.61,4.26-8.8,5.55-.27,.15-.69,.52-.46,1.43,.13,.51,1.48,3.7,2.75,3.7h.27l.19-.12c12.42-7.2,29.54-16.16,31.26-16.96,.31-.17,.64-.56,.41-1.42,0-.04-1.27-3.72-2.7-3.72l-.26,.02-.17,.09c-6.52,3.18-9.47,4.58-10.14,4.68-.19-.17-.63-.97-1.19-2-.49-.89-1.57-2.94-2.97-5.57-2.53-4.77-5.97-11.26-8.87-16.57l8.87-4.85c2.34-1.28,4.15-1.85,5.88-1.85,3.25,0,6.55,2.15,11.03,7.18,6.43,7.35,10.38,10.53,14.56,11.76,3.97,1.16,8.09,.59,12.24-1.67,5.06-2.76,7.33-8.48,7.14-17.98Zm-43.07-14.88c.21,5.97-5.98,10.2-12.71,13.89-2.72,1.49-5.39,2.86-6.65,3.45l-12.37-22.61c-.74-1.34-1.38-2.51-1.44-2.83,.46-.43,3.01-1.82,8.82-4.99,5.23-2.86,8.94-4.2,11.69-4.2,1.56,0,2.86,.41,4.2,1.35,2.08,1.44,3.56,3.22,5.26,6.32,2.14,3.9,3.1,6.77,3.2,9.62Z"/><path class="b" d="M468.04,136.79c-.64-6.58-2.31-18.72-3.62-27.31-.08-.45-.44-.99-1.75-.99-.12,0-2.9,.02-3.2,1.38l-.02,.12c-1.28,16.68-2.72,20.72-3.96,22.47-1.4,1.96-4.85,2.85-13.86,4.37-4.72,.79-7.61,1.16-9.09,1.16-.5,0-.73-.05-.82-.07-.41-.79-1.07-4.73-1.99-10.19l-.16-.98c-4-23.8-4.72-28.09-5.83-35.41-1.16-7.42-2.04-13.2-1.88-14.3,.72-.44,5.06-1.19,10.23-2.06,.95-.16,.85-1.36,.78-2.15-.28-3.29-.99-3.29-1.42-3.29l-17.28,2.88c-2.81,.47-5.84,.92-8.76,1.35-2.9,.43-5.64,.83-8.18,1.26-.94,.17-.84,1.32-.77,2.16,.29,3.28,.97,3.28,1.42,3.28h.15c5.03-.85,7.7-1.21,8.93-1.21,.48,0,.62,.05,.62,.04,.63,.75,1.82,7.84,2.27,10.51,1.46,8.66,2.77,17.25,4.03,25.55,.86,5.63,1.72,11.26,2.63,16.98l.16,1.09c.68,4.52,1.06,7.01,.94,7.4-.27,.2-1.89,.51-4.82,1.07-1.32,.25-2.97,.57-4.99,.96-.94,.14-.86,1.27-.8,2.01,.26,3.52,1.03,3.55,1.44,3.55h.17c7.41-1.38,14.38-2.55,27.07-4.68,12.64-2.13,21.58-3.62,30.43-4.87,.81-.13,1.36-.42,1.68-.86,.18-.25,.36-.67,.27-1.22Z"/><path class="b" d="M595.03,74.01c-.25-.39-.66-.63-1.26-.72-10.44-1.18-19.73-2.64-28.72-4.05l-.48-.08c-4.82-.76-25.92-4.21-31.33-5.31h-.14c-.69-.01-.96,.67-1.07,.96-.01,.03-1.17,3.15-.29,3.97l.17,.16,.23,.05c4.71,.94,9.11,1.88,9.4,2.26,.17,.5-.23,3.32-1.04,8.95l-.23,1.63c-.98,6.25-1.85,11.93-2.66,17.3-.72,4.74-1.4,9.23-2.1,13.65-2.44,15.43-3.45,18.98-3.85,19.66-.07,.02-.22,.04-.54,.04-1.25,0-4.19-.36-9.87-1.1h-.14c-.32-.01-1.27-.01-1.6,4.11-.04,.45-.11,1.39,.76,1.53,10.68,1.45,16.29,2.33,30.94,4.64l.85,.13c11.95,1.88,20.58,3.25,31.94,5.16,.22,.04,.41,.05,.57,.05,.46,0,1.26-.17,1.44-1.29,1.47-7.89,3.17-17.08,4.6-25.34,.04-.29-.04-.59-.25-.82-.74-.86-3.33-.91-3.36-.91-.35,0-1.06,0-1.4,.66-4.94,13.09-8.29,17.52-10.2,18.91-1.33,.88-2.9,1.24-8.29,.4l-12.11-1.92c-7.3-1.15-8.61-1.86-8.78-2.03-.23-.72,.57-6.21,2.47-18.24l.04-.23c.52-3.25,1.21-7.62,1.81-10.88,2.43,.21,5,.61,7.1,.94,6.11,.97,8,1.45,8.46,2.17,.65,.89,1,3.17,.85,12.19l-.03,.33,.25,.29c.62,.73,3.16,.75,3.19,.75,.43,0,1.56,0,1.72-.97,.6-6.5,2.12-16.66,4.39-29.37,.05-.3-.04-.6-.25-.84-.63-.75-2.53-.91-3.14-.91-.79,0-1.3,.17-1.6,.52l-.13,.15-.05,.19c-1.68,7.05-2.49,8.75-3.36,9.39-1.45,.92-4.5,1-9.24,.25-4.02-.63-5.1-.8-7.27-1.23l1.95-12.38c.61-3.86,1.84-11.65,2.4-13.29,.9-.04,3.54,.37,10.97,1.55l.41,.06c11.65,1.84,12.72,2.17,14.36,4.43,1.35,1.85,3.12,6.39,3.87,17.53,.07,1.59,3.49,1.75,3.53,1.75,.31,0,.76-.04,1.06-.37l.14-.16,.05-.21c.94-4.06,2.04-9.04,3.1-13.87,.65-2.95,1.29-5.89,1.88-8.55,.08-.25,.32-1.02-.08-1.66Z"/><path class="b" d="M727.69,128.01c-.26-.71-1.04-1.09-1.64-1.33-9.84-4.57-19.29-9.26-28.1-13.94-9.39-5.02-24.44-13.12-27.12-14.65-.27-.14-.57-.21-.88-.21-.89,0-1.75,.63-2.06,1.21-.83,1.48-1.66,2.98-2.52,4.51-2.75,4.93-5.86,10.53-10.19,17.86-.17,.31-.15,.68,.05,1.01,.45,.75,2.37,1.74,3.15,1.74,.35,0,.57-.14,.72-.29,5.74-5.92,13.58-12.83,17.22-13.98,.79-.25,1.44-.36,2.12-.36,1.63,0,3.66,.7,6.79,2.32,1.18,.62,4.19,2.18,4.86,2.72-.21,.69-1.41,3-4.03,8.03-1.94,3.72-3.67,7.08-5.3,10.24-5.16,10.01-9.24,17.92-15.47,28.93-3.51,6.21-4.99,7.41-5.25,7.58-.78-.14-4.65-1.93-11.25-5.01l-.22-.1h-.2c-1.34,0-2.38,3.41-2.39,3.45-.22,.91,.12,1.3,.47,1.49,12,5.72,22.05,10.77,35.12,18.26l.23,.1h.2c1.36,0,2.53-3.44,2.54-3.47,.19-.8-.25-1.13-.39-1.2-8-4.87-10.11-6.17-10.35-6.91-.25-.59,.82-2.74,2.25-5.48,6.4-12.31,12.66-24.1,20.29-38.23l1.26-2.3c3.1-5.67,4.46-8.17,4.96-8.84,.72,.27,2.43,1.15,3.22,1.55l.19,.1c5.52,2.88,7.48,4.42,8.1,6.35,1.18,3.76-1.55,16.92-2.45,21.28-.03,.2-.01,.51,.26,.84,.5,.58,2.22,1.48,3.04,1.48,.61,0,.87-.37,.94-.52,4.78-8.71,7.58-14.49,10.82-21.18l.89-1.84c.26-.51,.2-.94,.1-1.21Z"/><path class="b" d="M815.76,200.27c-8.92-9.42-18.03-13.55-30.43-13.8-10.01-.27-19.65,3.2-26.27,9.45-8.25,7.81-12.21,15.83-12.47,25.25-.3,10.8,3.58,21.28,10.64,28.75,7.27,7.68,17.45,12.25,27.93,12.54,.37,0,.74,.01,1.12,.01,10.62,0,20.87-3.94,28.14-10.82,7.13-6.75,11.36-15.54,11.59-24.1,.19-10.71-3.26-19.89-10.26-27.29Zm.69,22.22c-2.07,5.68-6.44,11.55-13.77,18.49-7.67,7.26-14.3,10.3-18.51,11.57-8.03,2.49-15.94,.13-22.35-6.64-5.96-6.3-8.06-14.15-5.62-21,1.71-4.56,5.45-9.46,11.76-15.43,8.1-7.67,14.29-11.85,20.08-13.55,1.84-.57,3.8-.86,5.8-.86,6.09,0,11.88,2.57,16.3,7.24,6.59,6.97,8.65,13.58,6.31,20.19Z"/><path class="b" d="M910.38,357.67c-1.64-3.14-3.2-6.37-4.63-9.6-1.73-3.92-4.84-11.7-6.33-15.44l-.43-1.08c-.08-.19-.36-.63-1.08-.63-.97,0-2.99,.89-3.51,1.68-.21,.32-.25,.7-.13,.96,.89,2.48,2.97,8.3,2.5,9.49-.8,2.06-6.93,5.53-19.88,11.23-4.13,1.83-8.26,3.61-12.29,5.36-3.06,1.33-6.08,2.63-9.01,3.92,4.36-7.17,8.73-14.44,12.96-21.49,5.73-9.54,11.14-18.56,16.51-27.28,2.97-4.65,3.63-5.96,3.53-6.98l-1.7-3.78c-1.82-3.91-3.26-6.99-4.34-9.45-.6-1.37-1.18-2.74-1.8-4.22-.72-1.7-1.49-3.53-2.41-5.61-.1-.24-.39-.64-1.14-.64-1,0-3.14,.77-3.71,1.64-.21,.33-.25,.72-.12,1.02,2.4,5.98,3.04,9.2,2.21,11.12l-.04,.12c-.1,.4-.13,.49-.87,.82-8.18,3.61-16.67,7.55-24.16,11.03-6.14,2.85-11.95,5.55-16.52,7.56-8.02,3.54-11.49,3.92-12.61,3.92-.56,0-.81-.09-.94-.14-.86-.33-2.06-2.18-5.3-8.19-.06-.14-.3-.58-.96-.58-.89,0-3.31,1.14-3.81,1.91-.2,.3-.23,.65-.08,.98,2.09,4.13,3.45,6.94,5.97,12.65l.16,.37c2.52,5.72,3.9,8.87,5.89,14.25,.08,.19,.36,.63,1.11,.63,.98,0,3.04-.82,3.66-1.59,.31-.39,.29-.75,.23-1-1.72-5.76-2.87-9.56-2.59-10.28,.51-1.31,5.29-3.66,10.38-6l6.62-3.12c10.87-5.13,22.09-10.42,32.43-15.02-10.87,19.05-30.49,52.35-39.71,65.49l-.09,.18c-.32,.81-.09,1.59,.54,3.01,1.42,3.22,2.03,4.05,2.95,4.05,.17,0,.34-.04,.49-.11,2.59-1.14,4.99-2.31,7.53-3.55,2.91-1.42,6.21-3.03,10.34-4.85,3.9-1.72,7.34-3.17,10.67-4.58,3.49-1.47,7.09-2.99,11.3-4.85,12.9-5.69,19.96-8.34,22.22-8.34,.24,0,.36,.03,.45,.07,.78,.24,2.16,2.37,5.15,7.38,.16,.3,.48,.48,.86,.48,.8,0,2.91-1.07,3.43-1.85,.3-.45,.21-.85,.1-1.1Z"/><path class="b" d="M181.75,326.06c-7.68-2.7-13.34-5.26-18.81-7.74l-.16-.1h-.24c-1,0-2.76,2.19-3.01,2.95-.23,.68,.15,1.04,.24,1.1,3.62,3.14,5.86,6.27,7.49,10.46,2.07,5.18,2.76,9.79-.21,16.74-3.49,8.04-9.13,12.62-15.88,12.9-5.6,.34-11.83-1.09-19.93-4.58-9.47-4.08-14.87-7.82-19.93-13.82-2.19-2.56-6.79-9.62-2.3-19.95,2.54-5.87,5.36-9.05,9.43-10.64,4.01-1.6,10.61-1.85,19.62-.75h.12c1.2,0,1.95-2.84,1.96-2.87,.19-.87-.15-1.22-.48-1.37-5.67-2.31-17.31-7.34-24.42-11.04-.13-.06-.27-.09-.41-.09-1.09,0-1.86,1.73-2.01,2.07-.38,.91-.37,1.58-.04,1.9,2.06,2.75,2.96,4.48,2.68,5.12-.1,.23-.75,.79-1.39,1.34-2.37,2.05-6.79,5.86-10.28,13.95-3.88,8.97-3.67,18.36,.66,29.55,3.79,9.34,11.4,17.05,20.89,21.17,4.32,1.86,8.92,2.8,13.68,2.8s9.13-.87,13.27-2.52c9.32-3.69,15.79-9.96,19.79-19.17,2.62-6.1,3.35-11.25,2.31-16.52l.09,.02-.32-1.19c-.02-.07-.45-1.76,.87-3.56,.79-1.09,1.21-1.22,5.58-1.67h0c1.27,0,1.79-2.51,1.79-2.54,.25-1.28-.19-1.75-.64-1.93Z"/></g><g><path class="b" d="M306.07,816.13c-1.77-10.48-6.81-18.8-14.96-24.73-8.07-5.86-15.8-8.59-24.34-8.59-2.48,0-5.04,.22-7.81,.68-9.86,1.57-18.56,6.67-23.87,13.99-6.62,9.1-9.02,17.63-7.57,26.86,1.68,10.59,7.37,20.09,15.6,26.07,6.86,4.99,14.96,7.62,23.41,7.62,2.04,0,4.09-.16,6.09-.47,10.64-1.69,20.56-7.61,26.53-15.84,5.72-7.87,8.25-17.2,6.93-25.59Zm-10.26-3.19c-.98,5.9-4.17,12.41-10.05,20.5-6.14,8.45-12.05,12.62-15.93,14.64-7.41,3.9-15.47,3.05-22.97-2.4-6.95-5.05-10.42-12.32-9.29-19.43,.84-4.74,3.59-10.2,8.64-17.17,6.51-8.95,11.78-14.14,17.1-16.84,2.79-1.47,6.02-2.25,9.34-2.25,4.72,0,9.34,1.54,13.34,4.45,7.68,5.58,10.89,11.63,9.81,18.51Z"/><path class="b" d="M403.38,892.63c-.56-.76-2.39-1.38-3.29-1.38-.48,0-.84,.15-1.08,.44l-.06,.09c-8.75,14.1-11.85,16.99-13.74,17.95-.64,.33-1.35,.48-2.23,.48-2.32,0-5.99-1.04-11.95-2.96-6.9-2.23-8.85-3.17-9.21-3.55,0-.86,1.18-4.55,2.81-9.59l.09-.28c7.55-23.37,8.91-27.58,11.34-34.74,2.36-7.04,4.22-12.52,4.86-13.44h.03c.9,0,4.04,.96,9.91,2.86l.27,.04c1.34,0,2.11-3.85,2.12-3.89,.14-.92-.32-1.21-.61-1.3l-16.39-5.29c-2.71-.87-5.61-1.88-8.41-2.84-2.71-.94-5.27-1.82-7.67-2.6l-.27-.04c-1.34,0-2.11,3.85-2.12,3.89-.14,.92,.32,1.21,.61,1.3,2.56,.83,8.54,2.76,8.92,3.33,.22,.91-1.97,7.72-2.8,10.28-2.66,8.25-5.42,16.36-8.08,24.21-1.83,5.38-3.66,10.77-5.48,16.26l-.35,1.03c-1.46,4.29-2.26,6.64-2.57,6.94-.46,0-1.83-.41-4.58-1.23-1.29-.39-2.92-.87-4.97-1.47l-.26-.04c-1.36,0-2.14,3.92-2.15,3.96-.15,.9,.24,1.23,.61,1.36,6.68,2.04,12.96,4.06,24.35,7.73l2.46,.79c11.04,3.57,19.76,6.38,28.11,9.32,.4,.13,.74,.19,1.05,.19,.8,0,1.4-.43,1.62-1.14,2.5-6.25,6.56-17.65,9.28-25.69,.06-.19,.12-.57-.18-.97Z"/><path class="b" d="M525.93,903.37c-.53-.54-1.71-.62-2.36-.62-1.26,0-1.99,.29-2.24,.89l-.04,.11c-4.11,16.06-6.2,19.75-7.71,21.24-1.63,1.6-4.74,1.96-14.27,1.89-7.23-.06-9.37-.37-9.84-.63-.27-.83-.24-4.81-.2-10.28,.18-25.07,.22-29.16,.39-36.53,.14-7.44,.27-13.23,.61-14.27,.72-.28,4.6-.28,6.5-.28,1.1,0,2.36,0,3.83,.02,.74,0,1.17-.52,1.19-3.2,0-.94,.01-2.23-1.03-2.24l-17.21-.13c-2.85-.02-5.91-.11-8.88-.19-2.87-.08-5.57-.15-8.1-.18-.73,0-1.16,.53-1.18,3.17,0,.96-.02,2.26,1.03,2.29,2.69,.02,8.98,.06,9.51,.49,.49,.82,.44,7.96,.42,10.65-.07,8.65-.26,17.2-.45,25.46-.13,5.69-.26,11.39-.35,17.18l-.03,1.11c-.1,4.36-.16,6.82-.39,7.38-.41,.13-2.04,.16-4.9,.2-1.32,.02-2.96,.04-5,.08-.74,0-1.17,.54-1.19,3.27,0,.96-.01,2.29,1.05,2.3,2.15-.02,4.25-.03,6.49-.03,5.14,0,10.87,.04,19.55,.11h1.77c11.73,.1,20.99,.17,29.92,.47h.03c2.01,0,2.23-1.23,2.23-1.71,.51-6.64,.96-18.75,1.15-27.28,0-.28-.11-.54-.31-.74Z"/><path class="b" d="M655.98,903.06c-2.11-7.61-4.59-16.47-6.95-24.52-.07-.23-.32-.76-1.21-.76-.45,0-3.71,.58-3.73,1.97,1.32,13.78,.27,19.18-.83,21.26-.82,1.43-2.11,2.39-7.19,3.96l-11.6,3.58c-4.39,1.35-7.13,2.01-8.38,2.01-.21,0-.32-.02-.33-.01-.54-.65-2.22-5.89-5.73-17.27-.86-2.79-2.26-7.32-3.19-10.66,2.26-.89,4.71-1.64,6.72-2.25,4.59-1.42,6.68-1.95,7.72-1.95,.38,0,.55,.07,.74,.19,.97,.51,2.27,2.39,6.07,10.46,.09,.2,.34,.55,.94,.55,.7,0,3.1-.73,3.66-1.51,.19-.27,.25-.59,.14-.92-2.29-6.03-5.37-15.73-8.9-28.04-.07-.23-.33-.77-1.26-.77-.84,0-3.44,.64-3.74,1.86l-.05,.19,.04,.19c1.58,6.99,1.6,8.86,1.1,9.8-.87,1.45-3.52,2.84-8.1,4.25-3.84,1.19-4.85,1.5-7,2.07l-3.66-11.85c-1.14-3.7-3.44-11.16-3.65-12.87,.86-.46,3.62-1.31,10.8-3.52,7.07-2.18,10.14-3.07,12.06-3.07,1.04,0,1.76,.27,2.65,.75,2.01,1.06,5.56,4.34,11.08,13.89,.22,.42,.67,.63,1.34,.63,.37,0,3.03-.28,3.35-1.39l.06-.21-.05-.21c-.91-3.9-2.07-8.65-3.2-13.25-.75-3.05-1.49-6.1-2.15-8.85-.23-1.45-1.09-1.66-1.58-1.66-.2,0-.41,.03-.67,.12-10.29,3.68-19.98,6.66-27.77,9.06-4.69,1.45-24.89,7.56-30.2,8.95-.31,.1-.67,.38-.66,1.14,0,.04,.31,3.55,1.5,3.91l.23,.07,.23-.06c5.74-1.51,8.22-2.07,9.15-2.07,.06,0,.2,0,.2,0,.38,.37,1.26,3.12,3.03,8.58l.45,1.38c1.84,5.98,3.55,11.42,5.17,16.55,1.42,4.53,2.78,8.82,4.08,13.05,4.57,14.79,5.21,18.38,5.15,19.16-.51,.46-4.21,1.73-9.71,3.59-.53,.16-.74,.63-.62,1.42,0,.04,.61,4.09,1.93,4.09h0l.27-.04c10.19-3.39,15.74-5.1,29.16-9.25l.44-.13c11.75-3.62,20.25-6.24,31.42-9.57,.47-.14,.95-.34,1.2-.81,.27-.5,.1-1.03,.06-1.17Z"/><path class="b" d="M772.73,834.93c-1.69-2.19-4.2-5.48-6.54-8.77-2.27-3.19-9.19-12.9-9.28-14.23v-.05c.37-.72,4.14-3.73,6.19-5.36l.26-.2,.05-.32c.12-.81-1.05-2.28-1.56-2.88-.63-.74-1.01-1-1.45-1h-.33l-.23,.19c-9.87,7.87-15.51,11.91-26.02,19.26-.19,.13-.6,.54-.33,1.38,.24,.76,1.67,3.14,2.85,3.14l.36-.03,.22-.16c4.93-3.51,7.8-5.35,8.53-5.49,.49,.18,1.39,.95,4.7,5.6,4.27,5.99,5.11,7.55,5.45,9.11,.56,3.86-1.58,9.97-7.59,14.26-6.33,4.51-12.46,5.34-17.88,2.45-4.52-2.4-8.28-5.67-16.27-16.89-6.24-8.76-9.05-14.7-10.01-21.22-1.2-6.96,1.85-13.62,8.35-18.26,4.22-3,7.89-4.18,11.33-3.6,3.84,.64,9.67,3.61,16.34,8.29,.13,.11,.35,.24,.67,.24,.94,0,2.66-1.43,3.05-2.2,.31-.61,.08-1.05-.03-1.18-3.68-5.36-8.85-13.52-12.32-20.33l-.4-.48h-.43c-.42,0-2.96,.84-3.13,1.85v.15c.05,4.92-1.01,6.07-1.33,6.3-.28,.2-1.26,.38-2.3,.58-3.19,.61-8.54,1.63-14.52,5.89-7.78,5.55-12.63,13.43-14.42,23.46-1.92,11.4,.33,21.4,6.87,30.57,5.99,8.42,13.89,13.56,23.47,15.27,1.86,.31,3.77,.47,5.68,.47,4.99,0,12.47-1.08,19.73-6.25,6.68-4.76,9.12-10.99,10.57-14.72,.54-1.38,1.04-2.68,1.44-2.96,.02-.01,.13-.08,.47-.08,1.21,0,3.56,.79,7,1.99l.29,.05c1.23,0,2.43-2.33,2.44-2.35,.14-.28,.47-.93,.07-1.47Z"/><path class="b" d="M865.71,730.04c-6.21-4.83-13.46-10.45-20.2-15.55-.17-.12-.38-.19-.59-.19-1.23,0-2.58,2.56-2.59,2.58-.16,.3-.48,.94-.04,1.54,9.27,10.27,11.64,15.23,12,17.55,.19,1.64-.27,3.18-3.41,7.46l-7.17,9.78c-4.12,5.62-5.43,6.64-5.82,6.8-.89-.25-5.55-3.6-14.87-10.44-2.52-1.84-6.23-4.56-8.92-6.65,1.16-1.86,2.54-3.75,3.77-5.44l.27-.37c3.63-4.94,4.91-6.39,5.74-6.45,.09-.01,.18-.02,.29-.02,1.34,0,4.36,1.35,10.79,4.79l.19,.12h.27c1.1,0,2.47-2.74,2.6-3.12,.25-.76-.09-1.15-.35-1.33-6.98-4.46-16.82-11.8-23.86-17.2-.17-.13-.38-.19-.6-.19-.78,0-1.56,.92-2.08,1.7-1.02,1.52-.77,2.13-.69,2.34l.08,.19,.15,.13c5.44,4.66,6.56,6.15,6.73,7.21,.15,1.7-1.14,4.4-3.96,8.24-2.37,3.23-3.01,4.09-4.38,5.83l-9.99-7.32c-3.12-2.29-9.41-6.91-10.6-8.14,.4-.84,2.02-3.06,6.57-9.26,6.9-9.41,7.68-10.21,10.4-10.63,.37-.06,.79-.09,1.24-.09,2.39,0,7.1,.81,15.95,4.64l.26,.1h.18c.97,0,2.04-1.41,2.34-1.84,.52-.74,.67-1.22,.52-1.66l-.08-.21-.17-.15c-2.96-2.5-6.59-5.52-10.1-8.43-2.54-2.1-5.08-4.21-7.37-6.12-.3-.29-.77-.69-1.38-.69-.5,0-.95,.26-1.33,.79-5.9,8.84-11.73,16.8-16.88,23.81-3.27,4.46-15.55,21.02-18.88,25.17-.1,.14-.31,.52-.05,1.03,.32,.63,2.41,2.59,3.38,2.59h.2l.36-.14,.14-.18c2.77-3.46,5.77-7.15,6.25-7.24,.52,.07,2.85,1.73,7.48,5.04l1.24,.89c5.05,3.7,9.66,7.04,14.01,10.19,3.84,2.79,7.49,5.42,11.06,8.04,12.47,9.13,15.12,11.64,15.54,12.3-.14,.68-2.35,3.9-5.65,8.66-.21,.28-.23,.65-.06,.98,.31,.61,3.08,2.83,3.87,2.83h.46l.25-.37c6.18-8.82,9.63-13.54,17.97-24.92l.15-.2c7.25-9.88,12.48-17.03,19.54-26.44,.26-.35,1.05-1.43-.17-2.34Z"/><path class="b" d="M223.88,731.31c-.23-.75-1.19-2.53-2.24-2.53h-.18c-1.21,.12-2.19,.18-3.01,.18-1.9,0-2.51-.3-2.68-.54-.14-.21-.28-1.05-.42-1.88-.51-3.08-1.46-8.81-6.52-15.98-5.54-7.86-13.86-12.69-25.44-14.76-9.85-1.62-20.43,.87-28.82,6.76-10.6,7.51-13.46,18.42-14.2,22.76-1.69,9.69,.33,18.69,6.01,26.75,3.83,5.41,7.85,8.71,12.91,10.57l-.07,.07,1.11,.31s1.71,.49,2.57,2.58c.52,1.27,.32,1.84-1.49,5.65-.21,.36-.16,.84,.15,1.41,.35,.65,1.45,2.08,2.44,2.08h0c.21,0,.42-.06,.62-.21,6.28-5.13,11.39-8.62,16.32-11.98,.65-.35,.47-1.32,.39-1.75-.09-.51-.63-3.05-1.81-3.05l-.27,.04c-4.63,1.47-8.32,1.74-12.77,.94-5.46-.92-9.72-2.73-14.1-8.86-5.02-7.14-5.99-14.3-2.73-20.19,2.65-4.97,7.03-9.46,14.22-14.56,8.39-5.92,14.38-8.56,22.09-9.75,.93-.15,1.87-.23,2.81-.23,4.23,0,10.33,1.49,15.33,8.61,3.67,5.21,4.91,9.26,4.14,13.55-.73,4.3-3.85,9.89-9.54,17.08-.38,.48-.07,1.13,.04,1.37,.01,.02,1.18,2.3,2.25,2.3l.31-.02,.19-.14c5.15-3.8,15.26-10.92,22.03-15.01,.26-.17,.65-.61,.35-1.58Z"/></g></g><path class="b" d="M119.55,536.35c0,10.04-8.14,18.17-18.17,18.17s-18.17-8.13-18.17-18.17,8.14-18.17,18.17-18.17,18.17,8.13,18.17,18.17Z"/><path class="b" d="M915.79,536.35c0,10.04-8.14,18.17-18.17,18.17s-18.17-8.13-18.17-18.17,8.14-18.17,18.17-18.17,18.17,8.13,18.17,18.17Z"/></svg>